<?xml version="1.0" encoding="utf-8"?>
<!-- Generator: Adobe Illustrator 15.1.0, SVG Export Plug-In . SVG Version: 6.00 Build 0)  -->
<!DOCTYPE svg PUBLIC "-//W3C//DTD SVG 1.1//EN" "http://www.w3.org/Graphics/SVG/1.1/DTD/svg11.dtd">
<svg version="1.1" id="Layer_1" xmlns="http://www.w3.org/2000/svg" xmlns:xlink="http://www.w3.org/1999/xlink" x="0px" y="0px"
	 width="40px" height="40px" viewBox="0 0 40 40" enable-background="new 0 0 40 40" xml:space="preserve">
<g>
	<defs>
		<rect id="SVGID_1_" width="40" height="40"/>
	</defs>
	<clipPath id="SVGID_2_">
		<use xlink:href="#SVGID_1_"  overflow="visible"/>
	</clipPath>
	
		<path clip-path="url(#SVGID_2_)" fill="none" stroke="#666666" stroke-linecap="round" stroke-linejoin="round" stroke-miterlimit="10" d="
		M6.588,19.992c0,1.434-1.159,2.594-2.589,2.594"/>
	
		<path clip-path="url(#SVGID_2_)" fill="none" stroke="#666666" stroke-linecap="round" stroke-linejoin="round" stroke-miterlimit="10" d="
		M16.456,13.569c0-2.507,2.029-4.54,4.531-4.54c2.503,0,4.532,2.033,4.532,4.54"/>
	
		<path clip-path="url(#SVGID_2_)" fill="none" stroke="#666666" stroke-linecap="round" stroke-linejoin="round" stroke-miterlimit="10" d="
		M16.605,13.591h-3.403c-3.652,0-6.614,2.966-6.614,6.626v6.355l-0.614,2.967c0,0.791,0.64,1.433,1.429,1.433h27.166
		c0.791,0,1.431-0.642,1.431-1.433l-0.614-3.171v-6.151c0-3.66-2.962-6.626-6.614-6.626h-3.253"/>
	
		<line clip-path="url(#SVGID_2_)" fill="none" stroke="#666666" stroke-linecap="round" stroke-linejoin="round" stroke-miterlimit="10" x1="21.936" y1="13.591" x2="16.457" y2="13.591"/>
</g>
</svg>
